<?xml version="1.0" encoding="UTF-8" standalone="no"?>
<svg
   width="66.999443"
   height="62.383823"
   viewBox="0 0 66.999443 62.383823"
   version="1.1"
   id="svg5"
   xmlns="http://www.w3.org/2000/svg"
   xmlns:svg="http://www.w3.org/2000/svg">
  <defs
     id="defs5" />
  <path
     d="m 48.999444,17.992188 18.000001,9 -18.000001,9 z"
     fill="#e8a34a"
     id="path3" />
  <path
     id="path5"
     style="fill:#ffffff;stroke-width:1.03353"
     d="M 25.898484,0 A 25.896545,25.896545 0 0 0 0.002,25.876954 H 0 v 0.0098 a 25.896545,25.896545 0 0 0 0,0.0098 25.896545,25.896545 0 0 0 0,0.0098 v 25.886719 h 25.857422 a 25.896545,25.896545 0 0 0 0.04102,0 A 25.896545,25.896545 0 0 0 51.794968,25.896485 25.896545,25.896545 0 0 0 25.898484,0 Z m 8.054688,16.033204 a 6.056788,6.056788 0 0 1 6.05664,6.05664 6.056788,6.056788 0 0 1 -6.05664,6.056641 6.056788,6.056788 0 0 1 -6.056641,-6.056641 6.056788,6.056788 0 0 1 6.056641,-6.05664 z" />
  <path
     d="m 21.73876,42.383816 h 21.03421 c 2.116955,0 11.596301,-2.05686 13.327181,-3.882147 0.006,3.055127 -0.0602,8.195713 -1.92034,13.882153 -1.71707,5.249149 -6.051813,10 -13.517104,10 H 21.73876 c -7.465291,0 -13.517105,-4.47715 -13.517105,-10 0,-5.522851 6.051814,-10.000006 13.517105,-10.000006 z"
     fill="#cdece4"
     id="path2-3-3"
     style="fill:#cdece4;fill-opacity:1;stroke-width:1.16263" />
</svg>
